HIERARCHY
ROOT handbone
{
	OFFSET -1.355774 -0.224670 0.000001
	CHANNELS 6 Xposition Yposition Zposition Xrotation Yrotation Zrotation
	JOINT indexlower
	{
		OFFSET -27.610151 27.215357 10.031754
		CHANNELS 6 Xposition Yposition Zposition Xrotation Yrotation Zrotation
		JOINT indexmiddle
		{
			OFFSET -36.039116 7.156580 -0.237765
			CHANNELS 3 Xrotation Yrotation Zrotation
			JOINT indextop
			{
				OFFSET -34.550667 3.887501 -0.676123
				CHANNELS 3 Xrotation Yrotation Zrotation
				End indexSite
				{
					OFFSET -20.232880 1.910034 -2.113411
				}
			}
		}
	}
	JOINT middlelower
	{
		OFFSET -33.072830 4.725623 9.122853
		CHANNELS 6 Xposition Yposition Zposition Xrotation Yrotation Zrotation
		JOINT middlemiddle
		{
			OFFSET -41.604553 -0.890238 -1.414906
			CHANNELS 3 Xrotation Yrotation Zrotation
			JOINT middletop
			{
				OFFSET -32.933449 -1.193488 0.545149
				CHANNELS 3 Xrotation Yrotation Zrotation
				End middleSite
				{
					OFFSET -19.312828 -0.193849 -2.766104
				}
			}
		}
	}
	JOINT pinkylower
	{
		OFFSET -16.568052 -37.329994 13.313303
		CHANNELS 6 Xposition Yposition Zposition Xrotation Yrotation Zrotation
		JOINT pinkymiddle
		{
			OFFSET -31.957144 -12.526093 0.604743
			CHANNELS 3 Xrotation Yrotation Zrotation
			JOINT pinkytop
			{
				OFFSET -24.235508 -9.966892 -0.428967
				CHANNELS 3 Xrotation Yrotation Zrotation
				End pinkySite
				{
					OFFSET -15.827278 -6.961704 -0.213587
				}
			}
		}
	}
	JOINT ringlower
	{
		OFFSET -27.751472 -17.756046 9.423440
		CHANNELS 6 Xposition Yposition Zposition Xrotation Yrotation Zrotation
		JOINT ringmiddle
		{
			OFFSET -37.834938 -5.653360 -4.089293
			CHANNELS 3 Xrotation Yrotation Zrotation
			JOINT ringtop
			{
				OFFSET -33.353310 -5.708067 -1.338019
				CHANNELS 3 Xrotation Yrotation Zrotation
				End ringSite
				{
					OFFSET -19.397255 -2.675426 -1.580985
				}
			}
		}
	}
	JOINT thumblower
	{
		OFFSET 47.402916 42.189899 11.712247
		CHANNELS 6 Xposition Yposition Zposition Xrotation Yrotation Zrotation
		JOINT thumbmiddle
		{
			OFFSET -27.663914 21.992798 7.593588
			CHANNELS 3 Xrotation Yrotation Zrotation
			JOINT thumbtop
			{
				OFFSET -29.442574 27.200466 4.000887
				CHANNELS 3 Xrotation Yrotation Zrotation
				End thumbSite
				{
					OFFSET -13.483565 17.937134 4.214972
				}
			}
		}
	}
	JOINT wrist
	{
		OFFSET 79.446518 -5.274386 13.494767
		CHANNELS 3 Xrotation Yrotation Zrotation
		End Site
		{
			OFFSET 182.085037 -23.553453 82.556168
		}
	}
}
MOTION
Frames: 12
Frame Time: 0.016667
-1.35577 -0.22467 -0.00000 18.03 -15.25 -4.62 -29.77683 27.86205 6.42836 -13.43 7.15 14.34 2.62 22.52 -0.28 13.83 14.91 -0.25 -32.91717 2.25143 4.42438 -12.08 33.08 8.10 -1.94 27.61 3.98 3.21 25.55 -1.93 -26.41493 -36.78213 37.77541 10.42 114.74 -56.49 -21.94 44.41 6.20 -4.08 10.16 -6.96 -34.12717 -16.15940 18.23542 -90.25 58.82 68.27 -13.48 31.99 22.97 17.16 25.91 -4.78 33.71426 37.27427 35.43008 40.30 12.18 23.32 2.72 5.51 45.98 4.61 -0.50 19.86 1.63 -20.43 -9.68 
-1.35577 -0.22467 -0.00000 18.20 -14.37 -4.60 -29.99748 27.84340 6.93030 -12.53 9.09 13.42 2.60 22.36 -0.29 13.71 14.98 -0.15 -33.22714 2.48125 4.63107 -10.01 34.04 6.53 -1.85 27.63 3.58 2.61 25.20 -2.01 -26.82400 -37.02766 37.36485 11.25 113.57 -56.84 -21.08 43.03 5.91 -4.26 9.50 -6.74 -34.04780 -16.43615 17.88779 -86.09 59.07 64.62 -13.76 33.36 22.25 16.55 25.70 -4.33 33.47610 36.77306 36.11997 41.15 12.30 23.95 2.83 5.16 45.99 3.63 -1.11 18.12 1.65 -21.55 -9.50 
-1.35577 -0.22467 -0.00000 18.45 -13.22 -4.68 -30.34706 28.07805 7.87515 -11.08 12.06 11.97 2.51 22.11 -0.00 13.65 15.03 -0.24 -33.58094 2.91512 4.94830 -6.79 34.98 4.17 -1.72 27.30 3.11 1.90 24.83 -2.29 -27.64449 -37.86240 35.50878 15.85 110.67 -59.41 -18.61 39.97 3.91 -4.94 8.61 -5.36 -33.82382 -16.81754 17.05219 -77.66 59.00 56.96 -12.89 32.46 20.83 16.01 25.64 -4.31 32.72282 36.35490 37.26280 42.19 12.42 24.94 3.03 4.70 45.99 2.38 -1.97 16.49 1.72 -23.06 -9.12 
-1.35577 -0.22467 -0.00000 18.59 -12.58 -4.76 -30.80960 28.29355 8.33312 -9.95 14.54 11.00 2.40 21.78 0.35 13.70 15.19 -0.37 -34.02693 3.12673 4.90701 -4.38 35.46 2.37 -1.56 27.14 2.43 1.19 24.16 -2.07 -28.42730 -38.42773 34.21034 20.82 108.47 -63.04 -16.45 36.52 2.72 -5.54 7.94 -4.30 -33.57690 -16.93891 16.54079 -71.19 58.29 50.87 -12.44 32.20 19.87 15.51 25.28 -4.26 32.11661 36.04044 37.86498 42.78 12.47 25.63 3.25 4.47 45.96 1.65 -2.46 15.56 1.84 -23.94 -8.86 
-1.35577 -0.22467 -0.00000 18.69 -11.95 -4.85 -31.24541 28.42258 8.91163 -8.40 17.89 10.04 2.22 21.22 0.90 13.90 15.58 -0.63 -34.11788 3.35717 5.06153 -1.36 35.77 0.04 -1.41 26.43 1.98 0.48 23.82 -2.15 -29.25899 -39.20414 32.82346 29.23 105.67 -69.89 -14.24 32.28 2.08 -5.87 6.02 -3.11 -33.16553 -17.26665 15.71982 -63.55 56.66 43.56 -11.84 31.63 18.78 14.96 24.61 -4.21 31.77625 35.47142 38.51713 43.30 12.51 26.30 3.59 4.31 46.00 0.84 -3.12 15.06 2.12 -24.77 -8.51 
-1.35577 -0.22467 -0.00000 18.73 -11.48 -4.99 -31.78335 28.38211 9.41351 -6.68 21.73 9.53 2.16 21.09 1.11 13.94 15.87 -0.61 -34.32529 3.53985 5.18564 1.68 35.97 -2.37 -1.25 25.70 1.42 -0.39 23.43 -2.10 -30.01448 -39.79369 31.20162 44.40 102.54 -83.28 -12.45 28.06 2.47 -5.75 4.08 -2.76 -32.79336 -17.42666 14.71634 -56.38 54.37 36.65 -11.06 30.74 17.44 14.30 23.74 -4.03 31.24638 35.02437 38.49357 43.66 12.69 26.86 3.95 4.26 46.18 0.73 -3.02 14.30 2.44 -25.38 -8.15 
-1.35577 -0.22467 -0.00000 18.76 -11.16 -5.16 -32.33344 28.27900 10.08958 -4.92 26.21 9.47 2.11 21.45 1.51 13.90 16.14 -0.95 -34.59444 3.78250 5.23644 4.80 36.21 -4.83 -1.10 25.10 0.83 -1.41 22.87 -2.10 -30.59506 -39.73298 28.98505 -103.67 79.79 67.19 -11.32 25.03 3.36 -5.43 2.64 -3.56 -32.46392 -17.44788 13.78580 -49.90 51.82 30.43 -10.16 29.64 15.87 13.43 22.43 -3.71 30.78387 34.90804 38.92877 43.94 12.99 27.50 4.35 4.36 46.37 0.76 -3.11 14.74 2.73 -25.82 -7.71 
-1.35577 -0.22467 -0.00000 18.89 -10.97 -5.33 -32.82784 28.31195 10.81450 -3.48 30.34 9.59 2.24 22.24 1.30 13.47 16.43 -0.86 -34.67620 4.06742 5.42116 7.58 36.45 -6.97 -0.94 24.39 0.21 -2.47 22.62 -2.11 -30.99458 -39.36916 26.49411 -66.39 78.29 32.64 -11.02 24.44 3.25 -5.43 1.26 -4.35 -32.13460 -17.32145 13.23286 -45.02 49.74 25.78 -9.31 28.32 14.52 12.67 21.25 -3.49 30.45195 34.78099 39.37826 43.99 13.17 27.97 4.88 4.58 46.63 0.76 -3.30 15.40 2.93 -26.09 -7.31 
-1.35577 -0.22467 -0.00000 19.22 -10.83 -5.62 -33.29168 28.21006 12.05527 -1.82 35.32 9.70 2.40 23.64 1.23 12.97 16.75 -1.16 -34.77790 3.92260 5.84931 10.94 36.72 -9.45 -0.71 23.70 -0.86 -3.96 22.21 -1.99 -30.58301 -39.00250 23.92884 -36.92 71.07 7.61 -10.76 25.09 1.26 -6.29 -0.59 -4.42 -31.85110 -17.22922 12.64708 -39.68 47.36 20.79 -8.22 26.44 12.83 11.70 19.45 -3.32 30.13272 34.51688 39.96142 44.04 13.58 28.63 5.37 4.80 46.83 0.82 -3.37 15.85 3.10 -26.36 -6.69 
-1.35577 -0.22467 -0.00000 19.74 -10.73 -6.12 -33.94176 28.21960 13.34848 -0.43 39.69 9.83 2.73 25.45 0.67 12.13 17.05 -1.07 -34.91242 3.61047 6.29060 13.77 37.06 -11.52 -0.53 22.83 -1.68 -5.23 21.99 -2.07 -29.69305 -39.38681 21.66259 -23.38 61.63 -0.76 -10.02 25.49 -2.03 -7.77 -2.88 -3.01 -31.47405 -17.17086 12.03594 -34.47 45.05 16.16 -6.95 23.88 10.94 10.43 17.83 -3.25 29.64463 34.10328 40.08961 44.17 14.17 29.35 5.56 4.89 46.88 0.89 -3.25 15.70 3.16 -26.61 -5.79 
-1.35577 -0.22467 -0.00000 20.21 -10.61 -6.65 -34.25946 28.52439 14.37223 0.73 43.04 9.82 3.14 27.31 -0.09 11.15 17.31 -0.70 -35.15452 3.52920 6.52195 15.91 37.58 -13.20 -0.42 22.00 -2.21 -6.15 21.46 -2.15 -28.35603 -40.15605 19.46857 -16.05 52.82 -2.95 -8.97 23.97 -3.76 -8.92 -4.21 -2.04 -30.81344 -16.80817 11.53078 -28.96 42.78 11.68 -5.60 20.75 8.84 8.64 16.33 -3.05 29.27082 34.13806 40.04995 44.34 14.63 29.96 5.70 4.91 46.82 1.02 -3.08 15.56 3.23 -26.83 -4.87 
-1.35577 -0.22467 -0.00000 20.61 -10.56 -7.10 -34.46092 28.73929 15.22745 1.56 45.37 9.68 3.52 28.80 -0.83 10.22 17.56 -0.20 -35.33585 3.40234 6.89991 17.31 38.29 -14.47 -0.33 20.86 -2.60 -6.83 20.81 -2.05 -27.18367 -40.89456 17.60667 -11.45 45.77 -3.13 -8.09 21.63 -3.66 -9.59 -4.71 -2.15 -30.15442 -16.55851 11.35497 -23.56 40.58 7.68 -4.34 17.23 7.02 6.66 14.78 -2.87 29.10073 34.09564 40.39770 44.61 15.01 30.50 5.81 4.91 46.66 0.79 -3.35 15.67 3.20 -26.94 -4.14 
